name rise30.2954peak35.7071fall66.7804.mot
datacolumns 19
datarows 24
range 16.52661000000000 16.56494000000000
endheader
time	ground_force1_vx	ground_force1_vy	ground_force1_vz	ground_force1_px	ground_force1_py	ground_force1_pz	ground_force2_vx	ground_force2_vy	ground_force2_vz	ground_force2_px	ground_force2_py	ground_force2_pz	ground_torque1_x	ground_torque1_y	ground_torque1_z	ground_torque2_x	ground_torque2_y	ground_torque2_z	
16.52661000000000	12.67911200000000	705.63799300000005	43.87442400000000	0.16634200000000	0.00000000000000	0.11896900000000	0.00000000000000	0.00000000000000	0.00000000000000	0.00000000000000	0.00000000000000	0.00000000000000	0.00000000000000	12.13689400000000	0.00000000000000	0.00000000000000	0.00000000000000	0.00000000000000	
16.52828200000000	12.42761300000000	706.73072999999999	43.85290800000000	0.16563100000000	0.00000000000000	0.11889000000000	0.00000000000000	0.00000000000000	0.00000000000000	0.00000000000000	0.00000000000000	0.00000000000000	0.00000000000000	12.15110000000000	0.00000000000000	0.00000000000000	0.00000000000000	0.00000000000000	
16.52995000000000	12.16733600000000	707.87566300000003	43.83964200000000	0.16490100000000	0.00000000000000	0.11881400000000	0.00000000000000	0.00000000000000	0.00000000000000	0.00000000000000	0.00000000000000	0.00000000000000	0.00000000000000	12.16929400000000	0.00000000000000	0.00000000000000	0.00000000000000	0.00000000000000	
16.53161200000000	11.89780900000000	709.07002699999998	43.83437500000000	0.16415200000000	0.00000000000000	0.11873900000000	0.00000000000000	0.00000000000000	0.00000000000000	0.00000000000000	0.00000000000000	0.00000000000000	0.00000000000000	12.19148000000000	0.00000000000000	0.00000000000000	0.00000000000000	0.00000000000000	
16.53327800000000	11.61860500000000	710.31103900000005	43.83684000000000	0.16338400000000	0.00000000000000	0.11866600000000	0.00000000000000	0.00000000000000	0.00000000000000	0.00000000000000	0.00000000000000	0.00000000000000	0.00000000000000	12.21765600000000	0.00000000000000	0.00000000000000	0.00000000000000	0.00000000000000	
16.53494500000000	11.32934400000000	711.59589600000004	43.84675500000000	0.16259600000000	0.00000000000000	0.11859600000000	0.00000000000000	0.00000000000000	0.00000000000000	0.00000000000000	0.00000000000000	0.00000000000000	0.00000000000000	12.24781300000000	0.00000000000000	0.00000000000000	0.00000000000000	0.00000000000000	
16.53661000000000	11.02968900000000	712.92179299999998	43.86382700000000	0.16179000000000	0.00000000000000	0.11852700000000	0.00000000000000	0.00000000000000	0.00000000000000	0.00000000000000	0.00000000000000	0.00000000000000	0.00000000000000	12.28193500000000	0.00000000000000	0.00000000000000	0.00000000000000	0.00000000000000	
16.53827500000000	10.71935500000000	714.28592400000002	43.88774700000000	0.16096700000000	0.00000000000000	0.11846000000000	0.00000000000000	0.00000000000000	0.00000000000000	0.00000000000000	0.00000000000000	0.00000000000000	0.00000000000000	12.31999600000000	0.00000000000000	0.00000000000000	0.00000000000000	0.00000000000000	
16.53993700000000	10.39810300000000	715.68549499999995	43.91819800000000	0.16012600000000	0.00000000000000	0.11839600000000	0.00000000000000	0.00000000000000	0.00000000000000	0.00000000000000	0.00000000000000	0.00000000000000	0.00000000000000	12.36196400000000	0.00000000000000	0.00000000000000	0.00000000000000	0.00000000000000	
16.54160700000000	10.06574400000000	717.11772699999995	43.95485300000000	0.15926800000000	0.00000000000000	0.11833300000000	0.00000000000000	0.00000000000000	0.00000000000000	0.00000000000000	0.00000000000000	0.00000000000000	0.00000000000000	12.40779900000000	0.00000000000000	0.00000000000000	0.00000000000000	0.00000000000000	
16.54327400000000	9.72214000000000	718.57986600000004	43.99737600000000	0.15839500000000	0.00000000000000	0.11827100000000	0.00000000000000	0.00000000000000	0.00000000000000	0.00000000000000	0.00000000000000	0.00000000000000	0.00000000000000	12.45745100000000	0.00000000000000	0.00000000000000	0.00000000000000	0.00000000000000	
16.54494000000000	9.36720300000000	720.06918800000005	44.04542200000000	0.15750800000000	0.00000000000000	0.11821200000000	0.00000000000000	0.00000000000000	0.00000000000000	0.00000000000000	0.00000000000000	0.00000000000000	0.00000000000000	12.51086200000000	0.00000000000000	0.00000000000000	0.00000000000000	0.00000000000000	
16.54662100000000	9.00089300000000	721.58300699999995	44.09864300000000	0.15660800000000	0.00000000000000	0.11815400000000	0.00000000000000	0.00000000000000	0.00000000000000	0.00000000000000	0.00000000000000	0.00000000000000	0.00000000000000	12.56796700000000	0.00000000000000	0.00000000000000	0.00000000000000	0.00000000000000	
16.54827900000000	8.62322100000000	723.11867800000005	44.15668300000000	0.15569600000000	0.00000000000000	0.11809700000000	0.00000000000000	0.00000000000000	0.00000000000000	0.00000000000000	0.00000000000000	0.00000000000000	0.00000000000000	12.62869000000000	0.00000000000000	0.00000000000000	0.00000000000000	0.00000000000000	
16.54994200000000	8.23424800000000	724.67360699999995	44.21918700000000	0.15477300000000	0.00000000000000	0.11804200000000	0.00000000000000	0.00000000000000	0.00000000000000	0.00000000000000	0.00000000000000	0.00000000000000	0.00000000000000	12.69294700000000	0.00000000000000	0.00000000000000	0.00000000000000	0.00000000000000	
16.55160700000000	7.83408000000000	726.24525300000005	44.28579300000000	0.15384000000000	0.00000000000000	0.11798700000000	0.00000000000000	0.00000000000000	0.00000000000000	0.00000000000000	0.00000000000000	0.00000000000000	0.00000000000000	12.76064400000000	0.00000000000000	0.00000000000000	0.00000000000000	0.00000000000000	
16.55327600000000	7.42287300000000	727.83113500000002	44.35614200000000	0.15290000000000	0.00000000000000	0.11793400000000	0.00000000000000	0.00000000000000	0.00000000000000	0.00000000000000	0.00000000000000	0.00000000000000	0.00000000000000	12.83167900000000	0.00000000000000	0.00000000000000	0.00000000000000	0.00000000000000	
16.55494400000000	7.00082600000000	729.42883500000005	44.42987500000000	0.15195400000000	0.00000000000000	0.11788200000000	0.00000000000000	0.00000000000000	0.00000000000000	0.00000000000000	0.00000000000000	0.00000000000000	0.00000000000000	12.90594000000000	0.00000000000000	0.00000000000000	0.00000000000000	0.00000000000000	
16.55661500000000	6.56818500000000	731.03599999999994	44.50663400000000	0.15100200000000	0.00000000000000	0.11783100000000	0.00000000000000	0.00000000000000	0.00000000000000	0.00000000000000	0.00000000000000	0.00000000000000	0.00000000000000	12.98330600000000	0.00000000000000	0.00000000000000	0.00000000000000	0.00000000000000	
16.55828000000000	6.12523700000000	732.65035100000000	44.58606500000000	0.15004700000000	0.00000000000000	0.11778000000000	0.00000000000000	0.00000000000000	0.00000000000000	0.00000000000000	0.00000000000000	0.00000000000000	0.00000000000000	13.06365000000000	0.00000000000000	0.00000000000000	0.00000000000000	0.00000000000000	
16.55994000000000	5.67230900000000	734.26968099999999	44.66782000000000	0.14909000000000	0.00000000000000	0.11773000000000	0.00000000000000	0.00000000000000	0.00000000000000	0.00000000000000	0.00000000000000	0.00000000000000	0.00000000000000	13.14683100000000	0.00000000000000	0.00000000000000	0.00000000000000	0.00000000000000	
16.56160800000000	5.20976800000000	735.89185999999995	44.75155500000000	0.14813100000000	0.00000000000000	0.11768000000000	0.00000000000000	0.00000000000000	0.00000000000000	0.00000000000000	0.00000000000000	0.00000000000000	0.00000000000000	13.23270400000000	0.00000000000000	0.00000000000000	0.00000000000000	0.00000000000000	
16.56327000000000	4.73801700000000	737.51483800000005	44.83693400000000	0.14717400000000	0.00000000000000	0.11763100000000	0.00000000000000	0.00000000000000	0.00000000000000	0.00000000000000	0.00000000000000	0.00000000000000	0.00000000000000	13.32111200000000	0.00000000000000	0.00000000000000	0.00000000000000	0.00000000000000	
16.56494000000000	4.25749100000000	739.13664400000005	44.92363000000000	0.14621800000000	0.00000000000000	0.11758200000000	0.00000000000000	0.00000000000000	0.00000000000000	0.00000000000000	0.00000000000000	0.00000000000000	0.00000000000000	13.41189300000000	0.00000000000000	0.00000000000000	0.00000000000000	0.00000000000000	
